{
	"asset":{
		"generator":"Khronos glTF Blender I/O v3.5.30",
		"version":"2.0"
	},
	"scene":0,
	"scenes":[
		{
			"name":"Scene",
			"nodes":[
				0
			]
		}
	],
	"nodes":[
		{
			"mesh":0,
			"name":"\u30af\u30a4\u30fc\u30f3"
		}
	],
	"materials":[
		{
			"doubleSided":true,
			"name":"\u30de\u30c6\u30ea\u30a2\u30eb.001",
			"pbrMetallicRoughness":{
				"baseColorFactor":[
					0.800000011920929,
					0.800000011920929,
					0.800000011920929,
					1
				],
				"metallicFactor":0,
				"roughnessFactor":0.5
			}
		}
	],
	"meshes":[
		{
			"name":"\u5e73\u9762.001",
			"primitives":[
				{
					"attributes":{
						"POSITION":0,
						"TEXCOORD_0":1,
						"NORMAL":2
					},
					"indices":3,
					"material":0
				}
			]
		}
	],
	"accessors":[
		{
			"bufferView":0,
			"componentType":5126,
			"count":212,
			"max":[
				0.4398500919342041,
				1.671950340270996,
				0.4398505687713623
			],
			"min":[
				-0.4398505687713623,
				0.011684119701385498,
				-0.43985068798065186
			],
			"type":"VEC3"
		},
		{
			"bufferView":1,
			"componentType":5126,
			"count":212,
			"type":"VEC2"
		},
		{
			"bufferView":2,
			"componentType":5126,
			"count":212,
			"type":"VEC3"
		},
		{
			"bufferView":3,
			"componentType":5123,
			"count":1212,
			"type":"SCALAR"
		}
	],
	"bufferViews":[
		{
			"buffer":0,
			"byteLength":2544,
			"byteOffset":0,
			"target":34962
		},
		{
			"buffer":0,
			"byteLength":1696,
			"byteOffset":2544,
			"target":34962
		},
		{
			"buffer":0,
			"byteLength":2544,
			"byteOffset":4240,
			"target":34962
		},
		{
			"buffer":0,
			"byteLength":2424,
			"byteOffset":6784,
			"target":34963
		}
	],
	"buffers":[
		{
			"byteLength":9208,
			"uri":"Queen.bin"
		}
	]
}
