{
	"asset":{
		"generator":"Khronos glTF Blender I/O v3.5.30",
		"version":"2.0"
	},
	"scene":0,
	"scenes":[
		{
			"name":"Scene",
			"nodes":[
				0
			]
		}
	],
	"nodes":[
		{
			"mesh":0,
			"name":"\u30ad\u30f3\u30b0"
		}
	],
	"materials":[
		{
			"doubleSided":true,
			"name":"KingWhiteMatrial",
			"pbrMetallicRoughness":{
				"baseColorTexture":{
					"index":0
				},
				"metallicFactor":0,
				"roughnessFactor":0.5
			}
		}
	],
	"meshes":[
		{
			"name":"\u5186.004",
			"primitives":[
				{
					"attributes":{
						"POSITION":0,
						"TEXCOORD_0":1,
						"NORMAL":2
					},
					"indices":3,
					"material":0
				}
			]
		}
	],
	"textures":[
		{
			"sampler":0,
			"source":0
		}
	],
	"images":[
		{
			"mimeType":"image/png",
			"name":"KingWhiteTex",
			"uri":"KingWhiteTex.png"
		}
	],
	"accessors":[
		{
			"bufferView":0,
			"componentType":5126,
			"count":1088,
			"max":[
				0.43404608964920044,
				1.7276850938796997,
				0.43404608964920044
			],
			"min":[
				-0.43404608964920044,
				0,
				-0.43404608964920044
			],
			"type":"VEC3"
		},
		{
			"bufferView":1,
			"componentType":5126,
			"count":1088,
			"type":"VEC2"
		},
		{
			"bufferView":2,
			"componentType":5126,
			"count":1088,
			"type":"VEC3"
		},
		{
			"bufferView":3,
			"componentType":5123,
			"count":5532,
			"type":"SCALAR"
		}
	],
	"bufferViews":[
		{
			"buffer":0,
			"byteLength":13056,
			"byteOffset":0,
			"target":34962
		},
		{
			"buffer":0,
			"byteLength":8704,
			"byteOffset":13056,
			"target":34962
		},
		{
			"buffer":0,
			"byteLength":13056,
			"byteOffset":21760,
			"target":34962
		},
		{
			"buffer":0,
			"byteLength":11064,
			"byteOffset":34816,
			"target":34963
		}
	],
	"samplers":[
		{
			"magFilter":9729,
			"minFilter":9987
		}
	],
	"buffers":[
		{
			"byteLength":45880,
			"uri":"King.bin"
		}
	]
}
