{
	"asset":{
		"generator":"Khronos glTF Blender I/O v3.5.30",
		"version":"2.0"
	},
	"scene":0,
	"scenes":[
		{
			"name":"Scene",
			"nodes":[
				0
			]
		}
	],
	"nodes":[
		{
			"mesh":0,
			"name":"\u30af\u30a4\u30fc\u30f3.001"
		}
	],
	"materials":[
		{
			"doubleSided":true,
			"name":"QueenBlackMatrial",
			"pbrMetallicRoughness":{
				"baseColorTexture":{
					"index":0
				},
				"metallicFactor":0,
				"roughnessFactor":0.5
			}
		}
	],
	"meshes":[
		{
			"name":"\u5186.012",
			"primitives":[
				{
					"attributes":{
						"POSITION":0,
						"TEXCOORD_0":1,
						"NORMAL":2
					},
					"indices":3,
					"material":0
				}
			]
		}
	],
	"textures":[
		{
			"sampler":0,
			"source":0
		}
	],
	"images":[
		{
			"mimeType":"image/png",
			"name":"QueenBlackTex",
			"uri":"QueenBlackTex.png"
		}
	],
	"accessors":[
		{
			"bufferView":0,
			"componentType":5126,
			"count":1048,
			"max":[
				0.43404608964920044,
				1.5440590381622314,
				0.43404608964920044
			],
			"min":[
				-0.43404608964920044,
				0,
				-0.43404608964920044
			],
			"type":"VEC3"
		},
		{
			"bufferView":1,
			"componentType":5126,
			"count":1048,
			"type":"VEC2"
		},
		{
			"bufferView":2,
			"componentType":5126,
			"count":1048,
			"type":"VEC3"
		},
		{
			"bufferView":3,
			"componentType":5123,
			"count":5064,
			"type":"SCALAR"
		}
	],
	"bufferViews":[
		{
			"buffer":0,
			"byteLength":12576,
			"byteOffset":0,
			"target":34962
		},
		{
			"buffer":0,
			"byteLength":8384,
			"byteOffset":12576,
			"target":34962
		},
		{
			"buffer":0,
			"byteLength":12576,
			"byteOffset":20960,
			"target":34962
		},
		{
			"buffer":0,
			"byteLength":10128,
			"byteOffset":33536,
			"target":34963
		}
	],
	"samplers":[
		{
			"magFilter":9729,
			"minFilter":9987
		}
	],
	"buffers":[
		{
			"byteLength":43664,
			"uri":"Queen.bin"
		}
	]
}
