{
	"asset":{
		"generator":"Khronos glTF Blender I/O v3.5.30",
		"version":"2.0"
	},
	"scene":0,
	"scenes":[
		{
			"name":"Scene",
			"nodes":[
				0
			]
		}
	],
	"nodes":[
		{
			"mesh":0,
			"name":"\u53f0\u5ea7"
		}
	],
	"materials":[
		{
			"doubleSided":true,
			"name":"\u30de\u30c6\u30ea\u30a2\u30eb",
			"pbrMetallicRoughness":{
				"baseColorFactor":[
					0,
					0.9924474358558655,
					1,
					1
				],
				"metallicFactor":0,
				"roughnessFactor":0.5
			}
		}
	],
	"meshes":[
		{
			"name":"\u5e73\u9762.002",
			"primitives":[
				{
					"attributes":{
						"POSITION":0,
						"TEXCOORD_0":1,
						"NORMAL":2
					},
					"indices":3,
					"material":0
				}
			]
		}
	],
	"accessors":[
		{
			"bufferView":0,
			"componentType":5126,
			"count":48,
			"max":[
				0.4349191188812256,
				0.20706814527511597,
				0.43492019176483154
			],
			"min":[
				-0.434920072555542,
				-0.2193061113357544,
				-0.4349198341369629
			],
			"type":"VEC3"
		},
		{
			"bufferView":1,
			"componentType":5126,
			"count":48,
			"type":"VEC2"
		},
		{
			"bufferView":2,
			"componentType":5126,
			"count":48,
			"type":"VEC3"
		},
		{
			"bufferView":3,
			"componentType":5123,
			"count":276,
			"type":"SCALAR"
		}
	],
	"bufferViews":[
		{
			"buffer":0,
			"byteLength":576,
			"byteOffset":0,
			"target":34962
		},
		{
			"buffer":0,
			"byteLength":384,
			"byteOffset":576,
			"target":34962
		},
		{
			"buffer":0,
			"byteLength":576,
			"byteOffset":960,
			"target":34962
		},
		{
			"buffer":0,
			"byteLength":552,
			"byteOffset":1536,
			"target":34963
		}
	],
	"buffers":[
		{
			"byteLength":2088,
			"uri":"PeiceTest.bin"
		}
	]
}
