{
	"asset":{
		"generator":"Khronos glTF Blender I/O v3.5.30",
		"version":"2.0"
	},
	"scene":0,
	"scenes":[
		{
			"name":"Scene",
			"nodes":[
				0
			]
		}
	],
	"nodes":[
		{
			"mesh":0,
			"name":"\u30ca\u30a4\u30c8"
		}
	],
	"materials":[
		{
			"doubleSided":true,
			"name":"KnightWhiteMatrial",
			"pbrMetallicRoughness":{
				"baseColorTexture":{
					"index":0
				},
				"metallicFactor":0,
				"roughnessFactor":0.5
			}
		}
	],
	"meshes":[
		{
			"name":"\u5186.001",
			"primitives":[
				{
					"attributes":{
						"POSITION":0,
						"TEXCOORD_0":1,
						"NORMAL":2
					},
					"indices":3,
					"material":0
				}
			]
		}
	],
	"textures":[
		{
			"sampler":0,
			"source":0
		}
	],
	"images":[
		{
			"mimeType":"image/png",
			"name":"KnightTexWhite",
			"uri":"KnightTexWhite.png"
		}
	],
	"accessors":[
		{
			"bufferView":0,
			"componentType":5126,
			"count":516,
			"max":[
				0.43404608964920044,
				1.5078142881393433,
				0.43404608964920044
			],
			"min":[
				-0.4919723868370056,
				0,
				-0.43404608964920044
			],
			"type":"VEC3"
		},
		{
			"bufferView":1,
			"componentType":5126,
			"count":516,
			"type":"VEC2"
		},
		{
			"bufferView":2,
			"componentType":5126,
			"count":516,
			"type":"VEC3"
		},
		{
			"bufferView":3,
			"componentType":5123,
			"count":2592,
			"type":"SCALAR"
		}
	],
	"bufferViews":[
		{
			"buffer":0,
			"byteLength":6192,
			"byteOffset":0,
			"target":34962
		},
		{
			"buffer":0,
			"byteLength":4128,
			"byteOffset":6192,
			"target":34962
		},
		{
			"buffer":0,
			"byteLength":6192,
			"byteOffset":10320,
			"target":34962
		},
		{
			"buffer":0,
			"byteLength":5184,
			"byteOffset":16512,
			"target":34963
		}
	],
	"samplers":[
		{
			"magFilter":9729,
			"minFilter":9987
		}
	],
	"buffers":[
		{
			"byteLength":21696,
			"uri":"Knight.bin"
		}
	]
}
