{
	"asset":{
		"generator":"Khronos glTF Blender I/O v3.5.30",
		"version":"2.0"
	},
	"scene":0,
	"scenes":[
		{
			"name":"Scene",
			"nodes":[
				0
			]
		}
	],
	"nodes":[
		{
			"mesh":0,
			"name":"\u30eb\u30fc\u30af"
		}
	],
	"materials":[
		{
			"doubleSided":true,
			"name":"RookWhiteMatrial",
			"pbrMetallicRoughness":{
				"baseColorTexture":{
					"index":0
				},
				"metallicFactor":0,
				"roughnessFactor":0.5
			}
		}
	],
	"meshes":[
		{
			"name":"\u5186.003",
			"primitives":[
				{
					"attributes":{
						"POSITION":0,
						"TEXCOORD_0":1,
						"NORMAL":2
					},
					"indices":3,
					"material":0
				}
			]
		}
	],
	"textures":[
		{
			"sampler":0,
			"source":0
		}
	],
	"images":[
		{
			"mimeType":"image/png",
			"name":"RookTexWhite",
			"uri":"RookTexWhite.png"
		}
	],
	"accessors":[
		{
			"bufferView":0,
			"componentType":5126,
			"count":624,
			"max":[
				0.43404608964920044,
				1.2991983890533447,
				0.43404608964920044
			],
			"min":[
				-0.43404608964920044,
				0,
				-0.43404608964920044
			],
			"type":"VEC3"
		},
		{
			"bufferView":1,
			"componentType":5126,
			"count":624,
			"type":"VEC2"
		},
		{
			"bufferView":2,
			"componentType":5126,
			"count":624,
			"type":"VEC3"
		},
		{
			"bufferView":3,
			"componentType":5123,
			"count":3156,
			"type":"SCALAR"
		}
	],
	"bufferViews":[
		{
			"buffer":0,
			"byteLength":7488,
			"byteOffset":0,
			"target":34962
		},
		{
			"buffer":0,
			"byteLength":4992,
			"byteOffset":7488,
			"target":34962
		},
		{
			"buffer":0,
			"byteLength":7488,
			"byteOffset":12480,
			"target":34962
		},
		{
			"buffer":0,
			"byteLength":6312,
			"byteOffset":19968,
			"target":34963
		}
	],
	"samplers":[
		{
			"magFilter":9729,
			"minFilter":9987
		}
	],
	"buffers":[
		{
			"byteLength":26280,
			"uri":"Rook.bin"
		}
	]
}
