{
	"asset":{
		"generator":"Khronos glTF Blender I/O v3.5.30",
		"version":"2.0"
	},
	"scene":0,
	"scenes":[
		{
			"name":"Scene",
			"nodes":[
				0,
				1
			]
		}
	],
	"nodes":[
		{
			"mesh":0,
			"name":"Bord"
		},
		{
			"mesh":1,
			"name":"COL"
		}
	],
	"materials":[
		{
			"doubleSided":true,
			"name":"BordMatrial",
			"pbrMetallicRoughness":{
				"baseColorTexture":{
					"index":0
				},
				"metallicFactor":0,
				"roughnessFactor":0.5
			}
		}
	],
	"meshes":[
		{
			"name":"\u5e73\u9762.004",
			"primitives":[
				{
					"attributes":{
						"POSITION":0,
						"TEXCOORD_0":1,
						"NORMAL":2
					},
					"indices":3,
					"material":0
				}
			]
		},
		{
			"name":"\u7acb\u65b9\u4f53",
			"primitives":[
				{
					"attributes":{
						"POSITION":4,
						"TEXCOORD_0":5,
						"NORMAL":6
					},
					"indices":7
				}
			]
		}
	],
	"textures":[
		{
			"sampler":0,
			"source":0
		}
	],
	"images":[
		{
			"mimeType":"image/png",
			"name":"BordTex",
			"uri":"BordTex.png"
		}
	],
	"accessors":[
		{
			"bufferView":0,
			"componentType":5126,
			"count":1184,
			"max":[
				4.231714725494385,
				0.1422046571969986,
				6.995273113250732
			],
			"min":[
				-4.235980987548828,
				-0.14619868993759155,
				-6.995273113250732
			],
			"type":"VEC3"
		},
		{
			"bufferView":1,
			"componentType":5126,
			"count":1184,
			"type":"VEC2"
		},
		{
			"bufferView":2,
			"componentType":5126,
			"count":1184,
			"type":"VEC3"
		},
		{
			"bufferView":3,
			"componentType":5123,
			"count":3288,
			"type":"SCALAR"
		},
		{
			"bufferView":4,
			"componentType":5126,
			"count":42,
			"max":[
				6.5000128746032715,
				0.14562086760997772,
				7.70545768737793
			],
			"min":[
				-6.500012397766113,
				-0.25174176692962646,
				-7.6356096267700195
			],
			"type":"VEC3"
		},
		{
			"bufferView":5,
			"componentType":5126,
			"count":42,
			"type":"VEC2"
		},
		{
			"bufferView":6,
			"componentType":5126,
			"count":42,
			"type":"VEC3"
		},
		{
			"bufferView":7,
			"componentType":5123,
			"count":96,
			"type":"SCALAR"
		}
	],
	"bufferViews":[
		{
			"buffer":0,
			"byteLength":14208,
			"byteOffset":0,
			"target":34962
		},
		{
			"buffer":0,
			"byteLength":9472,
			"byteOffset":14208,
			"target":34962
		},
		{
			"buffer":0,
			"byteLength":14208,
			"byteOffset":23680,
			"target":34962
		},
		{
			"buffer":0,
			"byteLength":6576,
			"byteOffset":37888,
			"target":34963
		},
		{
			"buffer":0,
			"byteLength":504,
			"byteOffset":44464,
			"target":34962
		},
		{
			"buffer":0,
			"byteLength":336,
			"byteOffset":44968,
			"target":34962
		},
		{
			"buffer":0,
			"byteLength":504,
			"byteOffset":45304,
			"target":34962
		},
		{
			"buffer":0,
			"byteLength":192,
			"byteOffset":45808,
			"target":34963
		}
	],
	"samplers":[
		{
			"magFilter":9729,
			"minFilter":9987
		}
	],
	"buffers":[
		{
			"byteLength":46000,
			"uri":"Bord.bin"
		}
	]
}
