{
	"asset":{
		"generator":"Khronos glTF Blender I/O v3.5.30",
		"version":"2.0"
	},
	"scene":0,
	"scenes":[
		{
			"name":"Scene",
			"nodes":[
				0
			]
		}
	],
	"nodes":[
		{
			"mesh":0,
			"name":"\u30d3\u30b7\u30e7\u30c3\u30d7"
		}
	],
	"materials":[
		{
			"doubleSided":true,
			"name":"BishopWhiteMatrial",
			"pbrMetallicRoughness":{
				"baseColorTexture":{
					"index":0
				},
				"metallicFactor":0,
				"roughnessFactor":0.5
			}
		}
	],
	"meshes":[
		{
			"name":"\u5186.002",
			"primitives":[
				{
					"attributes":{
						"POSITION":0,
						"TEXCOORD_0":1,
						"NORMAL":2
					},
					"indices":3,
					"material":0
				}
			]
		}
	],
	"textures":[
		{
			"sampler":0,
			"source":0
		}
	],
	"images":[
		{
			"mimeType":"image/png",
			"name":"BishopTexWhite",
			"uri":"BishopTexWhite.png"
		}
	],
	"accessors":[
		{
			"bufferView":0,
			"componentType":5126,
			"count":949,
			"max":[
				0.43404608964920044,
				1.5949831008911133,
				0.43404608964920044
			],
			"min":[
				-0.43404608964920044,
				0,
				-0.43404608964920044
			],
			"type":"VEC3"
		},
		{
			"bufferView":1,
			"componentType":5126,
			"count":949,
			"type":"VEC2"
		},
		{
			"bufferView":2,
			"componentType":5126,
			"count":949,
			"type":"VEC3"
		},
		{
			"bufferView":3,
			"componentType":5123,
			"count":4644,
			"type":"SCALAR"
		}
	],
	"bufferViews":[
		{
			"buffer":0,
			"byteLength":11388,
			"byteOffset":0,
			"target":34962
		},
		{
			"buffer":0,
			"byteLength":7592,
			"byteOffset":11388,
			"target":34962
		},
		{
			"buffer":0,
			"byteLength":11388,
			"byteOffset":18980,
			"target":34962
		},
		{
			"buffer":0,
			"byteLength":9288,
			"byteOffset":30368,
			"target":34963
		}
	],
	"samplers":[
		{
			"magFilter":9729,
			"minFilter":9987
		}
	],
	"buffers":[
		{
			"byteLength":39656,
			"uri":"Bishop.bin"
		}
	]
}
