{
	"asset":{
		"generator":"Khronos glTF Blender I/O v3.5.30",
		"version":"2.0"
	},
	"scene":0,
	"scenes":[
		{
			"name":"Scene",
			"nodes":[
				0
			]
		}
	],
	"nodes":[
		{
			"mesh":0,
			"name":"\u30dd\u30fc\u30f3"
		}
	],
	"materials":[
		{
			"doubleSided":true,
			"name":"PawnWhiteMatrial",
			"pbrMetallicRoughness":{
				"baseColorTexture":{
					"index":0
				},
				"metallicFactor":0,
				"roughnessFactor":0.5
			}
		}
	],
	"meshes":[
		{
			"name":"\u5186",
			"primitives":[
				{
					"attributes":{
						"POSITION":0,
						"TEXCOORD_0":1,
						"NORMAL":2
					},
					"indices":3,
					"material":0
				}
			]
		}
	],
	"textures":[
		{
			"sampler":0,
			"source":0
		}
	],
	"images":[
		{
			"mimeType":"image/png",
			"name":"PawnTexWhite",
			"uri":"PawnTexWhite.png"
		}
	],
	"accessors":[
		{
			"bufferView":0,
			"componentType":5126,
			"count":775,
			"max":[
				0.43404608964920044,
				1.538801670074463,
				0.43404608964920044
			],
			"min":[
				-0.43404608964920044,
				0,
				-0.43404608964920044
			],
			"type":"VEC3"
		},
		{
			"bufferView":1,
			"componentType":5126,
			"count":775,
			"type":"VEC2"
		},
		{
			"bufferView":2,
			"componentType":5126,
			"count":775,
			"type":"VEC3"
		},
		{
			"bufferView":3,
			"componentType":5123,
			"count":3852,
			"type":"SCALAR"
		}
	],
	"bufferViews":[
		{
			"buffer":0,
			"byteLength":9300,
			"byteOffset":0,
			"target":34962
		},
		{
			"buffer":0,
			"byteLength":6200,
			"byteOffset":9300,
			"target":34962
		},
		{
			"buffer":0,
			"byteLength":9300,
			"byteOffset":15500,
			"target":34962
		},
		{
			"buffer":0,
			"byteLength":7704,
			"byteOffset":24800,
			"target":34963
		}
	],
	"samplers":[
		{
			"magFilter":9729,
			"minFilter":9987
		}
	],
	"buffers":[
		{
			"byteLength":32504,
			"uri":"Pawn.bin"
		}
	]
}
